<?xml version="1.0" encoding="UTF-8"?>
<svg xmlns="http://www.w3.org/2000/svg" xmlns:xlink="http://www.w3.org/1999/xlink" width="32pt" height="32pt" viewBox="0 0 32 32" version="1.1">
<g id="surface5889349">
<path style=" stroke:none;fill-rule:nonzero;fill:rgb(12.156863%,40.000001%,85.490197%);fill-opacity:1;" d="M 10.664062 3.199219 C 6.546875 3.199219 3.199219 6.550781 3.199219 10.667969 L 3.199219 21.335938 C 3.199219 25.453125 6.550781 28.800781 10.667969 28.800781 L 21.335938 28.800781 C 25.453125 28.800781 28.800781 25.449219 28.800781 21.332031 L 28.800781 10.664062 C 28.800781 6.546875 25.449219 3.199219 21.332031 3.199219 Z M 23.464844 7.464844 C 24.054688 7.464844 24.535156 7.945312 24.535156 8.535156 C 24.535156 9.121094 24.054688 9.601562 23.464844 9.601562 C 22.878906 9.601562 22.398438 9.121094 22.398438 8.535156 C 22.398438 7.945312 22.878906 7.464844 23.464844 7.464844 Z M 16 9.601562 C 19.53125 9.601562 22.398438 12.46875 22.398438 16 C 22.398438 19.53125 19.53125 22.398438 16 22.398438 C 12.46875 22.398438 9.601562 19.53125 9.601562 16 C 9.601562 12.46875 12.46875 9.601562 16 9.601562 Z M 16 11.734375 C 13.644531 11.734375 11.734375 13.644531 11.734375 16 C 11.734375 18.355469 13.644531 20.265625 16 20.265625 C 18.355469 20.265625 20.265625 18.355469 20.265625 16 C 20.265625 13.644531 18.355469 11.734375 16 11.734375 Z M 16 11.734375 "/>
</g>
</svg>
