<?xml version="1.0" encoding="UTF-8"?>
<svg xmlns="http://www.w3.org/2000/svg" xmlns:xlink="http://www.w3.org/1999/xlink" width="32pt" height="32pt" viewBox="0 0 32 32" version="1.1">
<g id="surface5872659">
<path style=" stroke:none;fill-rule:nonzero;fill:rgb(20.392157%,59.607846%,85.882354%);fill-opacity:1;" d="M 10.667969 4 C 6.984375 4 4 6.984375 4 10.667969 L 4 21.332031 C 4 25.015625 6.984375 28 10.667969 28 L 21.332031 28 C 25.015625 28 28 25.015625 28 21.332031 L 28 10.667969 C 28 6.984375 25.015625 4 21.332031 4 Z M 24 6.667969 C 24.734375 6.667969 25.332031 7.265625 25.332031 8 C 25.332031 8.734375 24.734375 9.332031 24 9.332031 C 23.265625 9.332031 22.667969 8.734375 22.667969 8 C 22.667969 7.265625 23.265625 6.667969 24 6.667969 Z M 16 9.332031 C 19.679688 9.332031 22.667969 12.320312 22.667969 16 C 22.667969 19.679688 19.679688 22.667969 16 22.667969 C 12.320312 22.667969 9.332031 19.679688 9.332031 16 C 9.332031 12.320312 12.320312 9.332031 16 9.332031 Z M 16 12 C 13.789062 12 12 13.789062 12 16 C 12 18.210938 13.789062 20 16 20 C 18.210938 20 20 18.210938 20 16 C 20 13.789062 18.210938 12 16 12 Z M 16 12 "/>
</g>
</svg>
